<svg width="255" height="198" viewBox="0 0 255 198" fill="none" xmlns="http://www.w3.org/2000/svg">
<path fill-rule="evenodd" clip-rule="evenodd" d="M98.0046 88.6079C88.1472 81.3346 74.26 83.4293 66.9867 93.2867L36.6468 134.405C29.1586 144.554 31.3152 158.852 41.4639 166.34C44.8219 168.818 48.6342 170.24 52.5038 170.665C53.6598 175.852 56.6212 180.661 61.233 184.064C71.3817 191.552 85.6793 189.395 93.1675 179.247L123.507 138.128C130.781 128.271 128.686 114.384 118.829 107.11L117.774 106.332C114.639 104.019 111.096 102.653 107.489 102.183C106.332 97.2284 103.474 92.6439 99.0594 89.3863L98.0046 88.6079Z" fill="url(#paint0_linear_129_2)"/>
<path fill-rule="evenodd" clip-rule="evenodd" d="M156.089 88.6079C165.947 81.3346 179.834 83.4293 187.107 93.2867L217.447 134.405C224.935 144.554 222.779 158.852 212.63 166.34C209.272 168.818 205.46 170.24 201.59 170.665C200.434 175.852 197.473 180.661 192.861 184.064C182.712 191.552 168.414 189.395 160.926 179.247L130.586 138.128C123.313 128.271 125.408 114.384 135.265 107.11L136.32 106.332C139.455 104.019 142.997 102.653 146.605 102.183C147.761 97.2284 150.619 92.6439 155.034 89.3863L156.089 88.6079Z" fill="url(#paint1_linear_129_2)"/>
<path d="M198.422 94.0244C184.282 134.085 188.196 197.991 129.227 197.991C70.2589 197.991 72.0662 135.039 56.4221 94.0244C56.4221 52.5844 88.2099 18.9907 127.422 18.9907C166.634 18.9907 198.422 52.5844 198.422 94.0244Z" fill="url(#paint2_linear_129_2)"/>
<path fill-rule="evenodd" clip-rule="evenodd" d="M125.705 3.62226C125.573 3.60754 125.441 3.59418 125.309 3.58218L86.8444 0.0947453C74.8907 -0.98904 64.2549 7.3444 62.2731 18.9785C61.8436 19.5605 61.4377 20.1681 61.0576 20.8007L27.8142 76.1303L9.79025 88.6789C-0.560485 95.8853 -3.10948 110.118 4.09692 120.469C8.50077 126.794 15.5286 130.206 22.691 130.259C24.2494 133.647 26.6617 136.701 29.8753 139.072C40.0239 146.561 54.3215 144.404 61.8098 134.255L76.5449 114.285L79.9907 111.886C85.8467 111.073 91.385 108 95.1872 102.878L98.0237 99.0568C100.024 97.1911 101.616 95.0143 102.776 92.6547L121.244 67.7754L151.887 103.543C157.311 109.874 165.448 112.506 173.108 111.193L177.55 114.286L192.284 134.255C199.772 144.404 214.07 146.561 224.219 139.072C227.432 136.701 229.844 133.647 231.403 130.259C238.565 130.206 245.593 126.794 249.996 120.469C257.203 110.118 254.654 95.8853 244.303 88.6789L226.28 76.1309L193.036 20.8007C192.64 20.1411 192.216 19.5088 191.766 18.9043C189.621 7.74941 179.449 -0.316849 167.823 0.458487L129.286 3.02866C128.052 3.11096 126.855 3.31284 125.705 3.62226Z" fill="url(#paint3_linear_129_2)"/>
<defs>
<linearGradient id="paint0_linear_129_2" x1="75.2497" y1="188.071" x2="96.7021" y2="132.831" gradientUnits="userSpaceOnUse">
<stop stop-color="#1859A9"/>
<stop offset="1" stop-color="#0A2343"/>
</linearGradient>
<linearGradient id="paint1_linear_129_2" x1="121.909" y1="121.032" x2="204.5" y2="188.071" gradientUnits="userSpaceOnUse">
<stop offset="0.455" stop-color="#002149"/>
<stop offset="1" stop-color="#2474D8"/>
</linearGradient>
<linearGradient id="paint2_linear_129_2" x1="112.863" y1="55.2665" x2="163.216" y2="232.668" gradientUnits="userSpaceOnUse">
<stop stop-color="#004789"/>
<stop offset="0.345" stop-color="#62C6FF"/>
<stop offset="0.62" stop-color="#62C6FF"/>
<stop offset="1" stop-color="#3187C4"/>
</linearGradient>
<linearGradient id="paint3_linear_129_2" x1="103.138" y1="18.0604" x2="144.434" y2="133.367" gradientUnits="userSpaceOnUse">
<stop stop-color="#002149"/>
<stop offset="1" stop-color="#133D72"/>
</linearGradient>
</defs>
</svg>
