<svg width="242" height="239" viewBox="0 0 242 239" fill="none" xmlns="http://www.w3.org/2000/svg">
<path d="M54.9999 188.795C64.9999 175.995 63.8332 167.128 61.9999 164.295L112.5 190.295C112.333 198.128 111.7 214.595 110.5 217.795C109 221.795 94.4999 224.795 84.4999 219.295C88.7239 218.55 89.951 212.878 89.955 207.05L89.7979 206.977C79.4384 219.84 62.6001 214.793 54.9999 210.295C59.1665 209.628 67.2999 205.895 66.4999 196.295C66.105 191.556 67.1558 187.353 68.6421 184.011C65.6561 186.642 61.2251 188.795 54.9999 188.795Z" fill="#02244E"/>
<path d="M34.9999 163.795C44.9999 150.995 43.8332 142.128 41.9999 139.295L92.4999 165.295C92.3332 173.128 91.6999 189.595 90.4999 192.795C88.9999 196.795 74.4999 199.795 64.4999 194.295C68.7239 193.55 69.951 187.878 69.955 182.05L69.7979 181.977C59.4384 194.84 42.6001 189.793 34.9999 185.295C39.1665 184.628 47.2999 180.895 46.4999 171.295C46.105 166.556 47.1558 162.353 48.6421 159.012C45.6561 161.642 41.2251 163.795 34.9999 163.795Z" fill="#02244E"/>
<path d="M31.5068 137.716C45.8187 130.034 48.3259 121.449 47.7905 118.117L83.5215 162.271C80.2108 169.372 72.9922 184.186 70.6039 186.63C67.6185 189.686 53.1397 186.585 46.206 177.52C50.372 178.541 53.7817 173.846 56.135 168.514L56.0205 168.384C41.3545 175.978 27.98 164.571 22.8385 157.391C26.9203 158.46 35.8685 158.323 39.0069 149.215C40.5561 144.72 43.2122 141.297 45.9197 138.838C42.1266 140.042 37.2036 140.225 31.5068 137.716Z" fill="url(#paint0_linear_290_111)"/>
<path d="M92.0939 21.2053C106.586 32.6262 134.5 37.795 150 34.795L81.8655 71.385C72.1313 69.6229 51.7101 65.6702 47.8981 63.9565C43.1332 61.8143 41.5041 48.4635 49.8096 40.8172C50.1241 44.68 57.0111 46.9274 64.2707 48.133L64.3841 48.01C49.867 36.2606 58.6019 22.5162 65.3103 16.7705C65.535 20.5667 69.0033 28.4784 81.0788 29.7561C87.0397 30.3868 92.1225 32.1764 96.0696 34.1708C93.2267 31.0063 91.1889 26.6714 92.0939 21.2053Z" fill="url(#paint1_linear_290_111)"/>
<path d="M191 188.795C181 175.995 182.167 167.128 184 164.295L133.5 190.295C133.667 198.128 134.3 214.595 135.5 217.795C137 221.795 151.5 224.795 161.5 219.295C157.276 218.55 156.049 212.878 156.045 207.05L156.202 206.977C166.561 219.84 183.4 214.793 191 210.295C186.833 209.628 178.7 205.895 179.5 196.295C179.895 191.556 178.844 187.353 177.358 184.011C180.344 186.642 184.775 188.795 191 188.795Z" fill="#02244E"/>
<path d="M216.314 122.477C200.071 122.581 193.843 128.999 192.759 132.195L181.801 76.4625C188.046 71.7312 176.725 67.2208 179.442 65.1479C196.652 52.0185 220.024 69.1625 221.918 80.4169C218.712 77.5676 213.503 80.1257 208.931 83.7398L208.972 83.9082C225.486 84.0474 231.981 100.382 233.171 109.133C230.062 106.28 222.087 102.22 215.056 108.806C211.586 112.057 207.638 113.841 204.096 114.75C208.011 115.459 212.45 117.596 216.314 122.477Z" fill="#02244E"/>
<path d="M228.101 110.118C214.131 101.83 214.5 98.295 212.672 89.8403L176.5 81.295C179.504 88.5316 166.036 137.839 167.335 141C175.565 161.02 204.395 158.016 211.711 149.257C207.505 150.098 204.299 145.261 202.176 139.834L202.296 139.709C216.624 147.924 230.474 137.1 235.919 130.146C231.795 131.04 222.861 130.52 220.115 121.286C218.76 116.728 216.253 113.195 213.653 110.622C217.392 111.987 222.302 112.382 228.101 110.118Z" fill="url(#paint2_linear_290_111)"/>
<path d="M220.101 147.118C206.132 138.83 203.994 130.146 204.672 126.84L167.083 169.423C170.086 176.66 158.036 174.839 159.335 178C167.566 198.02 196.395 195.017 203.711 186.257C199.505 187.098 196.299 182.261 194.177 176.834L194.296 176.709C208.624 184.924 222.475 174.1 227.919 167.146C223.795 168.04 214.861 167.52 212.116 158.286C210.76 153.728 208.253 150.195 205.654 147.622C209.392 148.987 214.302 149.382 220.101 147.118Z" fill="#02244E"/>
<path d="M191 153.811C191 200.47 152.5 238.295 124.253 238.295C96.0053 238.295 55.9999 200.47 55.9999 153.811C55.9999 107.151 55.9999 60.749 124.253 69.3262C191 61.1779 191 107.151 191 153.811Z" fill="url(#paint3_linear_290_111)"/>
<path d="M31.9998 102.295C31.9995 121.295 51.5781 147.783 56.9999 167.795C56.9999 167.795 64.909 161.295 65.9999 149.295C67.0908 137.295 66.9998 128.78 66.9998 114.295C75.6109 102.86 71.6295 109.325 74.4999 99.795C81.1974 104.56 101.744 109.295 127.5 109.295C153.5 109.295 168 104.414 177 99.795C178.5 113.295 181 121.399 185 126.795C188.283 131.224 190.138 147.462 189.5 163.027C189.181 168.109 191.646 162.094 199.773 142.062C215.5 103.295 210 70.2951 182 64.7951C174 5.2951 121.377 52.295 109 47.295C96.6224 42.2951 63.3305 40.3279 48.9998 57.295C30.4183 79.295 32.0001 84.295 31.9998 102.295Z" fill="#02244E"/>
<path d="M211.609 150.999C216.941 151.242 222.594 151.431 223.752 153.49C223.941 151.438 222.302 144.102 219.449 142.013C216.027 139.506 214.039 134.453 215.336 128.482C215.336 128.482 218.554 106.736 194.486 98.3113C180.493 92.8837 172.773 101.837 171.49 103.381C170.321 118.74 183.869 130.866 186.145 136.027C193.177 151.97 179.886 157.737 199.96 178.453L200.06 178.312C215.473 184.243 227.509 171.432 231.828 163.729C227.889 165.242 218.981 166.091 214.858 157.385C213.318 154.134 212.525 152.175 211.609 150.999Z" fill="url(#paint4_linear_290_111)"/>
<path d="M21.2188 76.8174C37.0962 73.3899 42.5 65.295 47 58.795C47 58.795 60.5 39.295 79.5 52.795C91.6879 61.455 152.973 38.5651 160.5 66.7951C162.613 74.7192 153.5 84.7951 153.5 84.7951C102 72.7951 49.1993 133.26 46.2284 134.949C42.5149 137.061 29.4568 130.08 25.2982 119.452C28.5392 121.309 32.4269 118.841 35.8438 115.218C21.8675 114.968 11.0711 101.155 8.40362 93.6484C12.0308 95.8045 20.6685 98.1454 26.2016 90.2597C28.9278 86.3744 30.7766 83.9114 32.9491 82.4659C29.5103 81.9876 25.4834 80.373 21.2188 76.8174Z" fill="url(#paint5_linear_290_111)"/>
<path d="M177.985 107.55C157.484 120.05 144.484 117.592 114.484 116.092C80.7353 114.405 71.2804 180.796 23.2802 152.296C15.7736 147.839 6.74546 128.778 12.3499 116.092C29.5337 136.665 52.0287 112.469 54.2798 94.2956C56.531 76.1227 71.8305 60.0525 104.484 56.0498C181.984 46.5498 177.985 107.55 177.985 107.55Z" fill="url(#paint6_linear_290_111)"/>
<defs>
<linearGradient id="paint0_linear_290_111" x1="55.9999" y1="170.295" x2="37.4999" y2="181.295" gradientUnits="userSpaceOnUse">
<stop stop-color="#02244E"/>
<stop offset="1" stop-color="#012D65"/>
</linearGradient>
<linearGradient id="paint1_linear_290_111" x1="61.3092" y1="44.9868" x2="52.4999" y2="21.295" gradientUnits="userSpaceOnUse">
<stop stop-color="#02244E"/>
<stop offset="1" stop-color="#012D63"/>
</linearGradient>
<linearGradient id="paint2_linear_290_111" x1="219" y1="119.795" x2="240.5" y2="134.795" gradientUnits="userSpaceOnUse">
<stop stop-color="#02244E"/>
<stop offset="1" stop-color="#012D64"/>
</linearGradient>
<linearGradient id="paint3_linear_290_111" x1="124" y1="59.795" x2="154" y2="277.295" gradientUnits="userSpaceOnUse">
<stop offset="0.15" stop-color="#004789"/>
<stop offset="0.47" stop-color="#62C6FF"/>
<stop offset="0.695" stop-color="#62C6FF"/>
<stop offset="0.86" stop-color="#3085C3"/>
</linearGradient>
<linearGradient id="paint4_linear_290_111" x1="193.782" y1="129.788" x2="207.003" y2="179.35" gradientUnits="userSpaceOnUse">
<stop stop-color="#02244E"/>
<stop offset="1" stop-color="#012D64"/>
</linearGradient>
<linearGradient id="paint5_linear_290_111" x1="79.5" y1="59.2951" x2="23" y2="127.795" gradientUnits="userSpaceOnUse">
<stop stop-color="#02244E"/>
<stop offset="1" stop-color="#012D64"/>
</linearGradient>
<linearGradient id="paint6_linear_290_111" x1="124.78" y1="83.7956" x2="82.8516" y2="168.383" gradientUnits="userSpaceOnUse">
<stop stop-color="#02244E"/>
<stop offset="1" stop-color="#012E65"/>
</linearGradient>
</defs>
</svg>
