<svg width="447" height="147" viewBox="0 0 447 147" fill="none" xmlns="http://www.w3.org/2000/svg">
<path d="M11.9905 74.2922C11.9905 77.4897 12.6588 79.4685 13.9955 80.2285L13.052 81.7617C11.3746 80.6872 9.98553 79.2588 8.88476 77.4766C7.8102 75.7206 7.27293 73.8336 7.27293 71.8155V66.7834C7.27293 64.7129 6.95842 63.1404 6.32941 62.0659C5.72661 60.9913 4.82241 60.454 3.61681 60.454H0V57.309H3.61681C4.82241 57.309 5.72661 56.7717 6.32941 55.6971C6.95842 54.6226 7.27293 53.05 7.27293 50.9796V45.9475C7.27293 43.9294 7.8102 42.0424 8.88476 40.2864C9.98553 38.5042 11.3746 37.0758 13.052 36.0013L13.9955 37.5345C12.6588 38.2945 11.9905 40.2733 11.9905 43.4708V49.0925C11.9905 51.1106 11.4401 52.9976 10.3393 54.7536C9.26479 56.4834 7.88883 57.8593 6.21147 58.8815C7.88883 59.9036 9.26479 61.2927 10.3393 63.0487C11.4401 64.7785 11.9905 66.6524 11.9905 68.6705V74.2922Z" fill="white"/>
<path d="M37.587 41.8196C38.9761 41.8196 40.5748 42.0162 42.3832 42.4093C44.2178 42.8024 45.5545 43.2218 46.3932 43.6673V51.2941H44.8993C42.4881 47.1793 39.2906 45.1219 35.3069 45.1219C33.5771 45.1219 31.9915 45.633 30.55 46.6551C29.1347 47.651 28.0208 49.0532 27.2084 50.8616C26.3959 52.6438 25.9897 54.6488 25.9897 56.8765C25.9897 59.445 26.3828 61.7907 27.169 63.9136C27.9815 66.0365 29.2002 67.74 30.8252 69.0243C32.4763 70.3085 34.5075 70.9506 36.9187 70.9506C39.1464 70.9506 42.3439 69.2733 46.5111 65.9185L47.6905 67.8056L40.4569 73.4273C39.4872 73.7681 38.5436 73.9908 37.6263 74.0957C36.7352 74.2267 35.7655 74.2922 34.7172 74.2922C31.9652 74.2922 29.5278 73.6239 27.4049 72.2873C25.282 70.9506 23.6309 69.116 22.4515 66.7834C21.2721 64.4246 20.6824 61.7513 20.6824 58.7635C20.6824 55.6971 21.5735 52.8666 23.3557 50.2719C25.1379 47.651 27.3525 45.5937 29.9996 44.0998C32.6467 42.5797 35.1758 41.8196 37.587 41.8196Z" fill="white"/>
<path d="M69.8361 41.8196C72.6142 41.8196 75.0647 42.4879 77.1876 43.8246C79.3367 45.1612 81.001 47.0089 82.1804 49.3677C83.3598 51.7265 83.9495 54.3998 83.9495 57.3876C83.9495 60.454 83.0584 63.2846 81.2762 65.8792C79.494 68.4739 77.2793 70.5313 74.6323 72.0514C71.9852 73.5453 69.456 74.2922 67.0448 74.2922C64.2667 74.2922 61.8031 73.637 59.654 72.3266C57.531 70.9899 55.8799 69.1422 54.7005 66.7834C53.5211 64.4246 52.9314 61.7513 52.9314 58.7635C52.9314 55.6971 53.8225 52.8666 55.6047 50.2719C57.3869 47.651 59.6015 45.5937 62.2486 44.0998C64.8957 42.5797 67.4249 41.8196 69.8361 41.8196ZM67.5559 45.1219C65.8261 45.1219 64.2405 45.633 62.799 46.6551C61.3837 47.651 60.2699 49.0532 59.4574 50.8616C58.6449 52.6438 58.2387 54.6488 58.2387 56.8765C58.2387 59.445 58.6449 61.8038 59.4574 63.9529C60.2699 66.0758 61.5017 67.7794 63.1528 69.0636C64.8302 70.3478 66.8876 70.9899 69.325 70.9899C71.0548 70.9899 72.6273 70.492 74.0426 69.496C75.484 68.4739 76.611 67.0717 77.4235 65.2895C78.236 63.4811 78.6422 61.4631 78.6422 59.2353C78.6422 56.6406 78.236 54.2819 77.4235 52.1589C76.611 50.0098 75.3792 48.3063 73.7281 47.0482C72.0769 45.764 70.0195 45.1219 67.5559 45.1219Z" fill="white"/>
<path d="M105.167 42.252C107.867 42.252 110.252 42.9073 112.322 44.2177C114.419 45.5019 116.031 47.2972 117.158 49.6036C118.311 51.91 118.887 54.5177 118.887 57.4269C118.887 60.4147 118.009 63.1797 116.253 65.722C114.524 68.238 112.361 70.243 109.767 71.7369C107.198 73.2046 104.735 73.9384 102.376 73.9384C101.17 73.9384 99.9516 73.8729 98.7198 73.7419C96.7018 73.6108 95.1423 73.5453 94.0416 73.5453H89.0488V72.3266L92.7442 69.4174V45.515L88.6557 44.1784L89.4419 42.6059H94.0023C96.4921 42.6059 98.9164 42.5272 101.275 42.37C103.057 42.2651 104.355 42.2127 105.167 42.2127V42.252ZM103.477 71.0292C105.364 71.0292 107.08 70.5313 108.627 69.5353C110.173 68.5132 111.379 67.111 112.244 65.3288C113.135 63.5204 113.58 61.5024 113.58 59.2746C113.58 56.6013 113.161 54.177 112.322 52.0017C111.483 49.8002 110.199 48.0442 108.469 46.7337C106.766 45.4233 104.643 44.7681 102.101 44.7681C100.502 44.7681 99.0212 45.2398 97.6584 46.1834V70.0464C99.2571 70.7016 101.197 71.0292 103.477 71.0292Z" fill="white"/>
<path d="M147.573 73.506H123.985V72.2873L127.681 69.3781V45.5543L123.592 44.1784L124.378 42.6059H147.18L149.303 41.8982V50.9402L148.124 51.3334L143.445 44.375H132.595V56.8372H138.767L141.637 51.8051H142.856V63.7563L141.283 64.5426L138.806 58.6063H132.595V71.7369H143.288L148.517 63.9922L149.696 64.3853V74.2136L147.573 73.506Z" fill="white"/>
<path d="M184.703 73.5846H177.39L168.741 59.6284L166.894 58.2918L167.483 57.1124H169.685C171.467 57.1124 172.869 56.6669 173.891 55.7758C174.94 54.8585 175.464 53.6135 175.464 52.041C175.464 49.9705 174.887 48.2538 173.734 46.891C172.581 45.5019 170.904 44.8074 168.702 44.8074C167.234 44.8074 165.885 45.2398 164.653 46.1047V70.5968L168.781 72.0121L167.994 73.5846H156.043V72.3659L159.739 69.4567V45.5543L155.65 44.2177L156.436 42.6452H160.997C163.382 42.6452 165.727 42.5665 168.034 42.4093C169.711 42.3045 170.956 42.252 171.768 42.252C173.524 42.252 175.084 42.6059 176.447 43.3135C177.836 44.0211 178.897 44.9778 179.631 46.1834C180.391 47.389 180.771 48.7125 180.771 50.154C180.771 51.4644 180.365 52.7224 179.552 53.928C178.74 55.1074 177.665 56.1427 176.329 57.0338C175.018 57.8987 173.629 58.5539 172.162 58.9994L174.717 59.8643L180.811 69.6926L185.489 72.0121L184.703 73.5846Z" fill="white"/>
<path d="M191.37 43.4708C191.37 40.2733 190.701 38.2945 189.365 37.5345L190.308 36.0013C191.986 37.0758 193.362 38.5042 194.436 40.2864C195.537 42.0424 196.087 43.9294 196.087 45.9475V50.9796C196.087 53.05 196.389 54.6226 196.992 55.6971C197.621 56.7717 198.538 57.309 199.743 57.309H203.36V60.454H199.743C198.538 60.454 197.621 60.9913 196.992 62.0659C196.389 63.1404 196.087 64.7129 196.087 66.7834V71.8155C196.087 73.8336 195.537 75.7206 194.436 77.4766C193.362 79.2588 191.986 80.6872 190.308 81.7617L189.365 80.2285C190.701 79.4685 191.37 77.4897 191.37 74.2922V68.6705C191.37 66.6524 191.907 64.7785 192.982 63.0487C194.082 61.2927 195.471 59.9036 197.149 58.8815C195.471 57.8593 194.082 56.4834 192.982 54.7536C191.907 52.9976 191.37 51.1106 191.37 49.0925V43.4708Z" fill="white"/>
<path d="M219.802 90.2873C222.502 90.2873 224.887 90.9425 226.957 92.2529C229.054 93.5372 230.666 95.3325 231.793 97.6388C232.946 99.9452 233.523 102.553 233.523 105.462C233.523 108.45 232.645 111.215 230.889 113.757C229.159 116.273 226.997 118.278 224.402 119.772C221.833 121.24 219.37 121.974 217.011 121.974C215.805 121.974 214.587 121.908 213.355 121.777C211.337 121.646 209.777 121.581 208.677 121.581H203.684V120.362L207.379 117.453V93.5503L203.291 92.2136L204.077 90.6411H208.637C211.127 90.6411 213.551 90.5625 215.91 90.4052C217.692 90.3004 218.99 90.248 219.802 90.248V90.2873ZM218.112 119.064C219.999 119.064 221.716 118.567 223.262 117.571C224.808 116.548 226.014 115.146 226.879 113.364C227.77 111.556 228.215 109.538 228.215 107.31C228.215 104.637 227.796 102.212 226.957 100.037C226.119 97.8354 224.834 96.0794 223.105 94.769C221.401 93.4585 219.278 92.8033 216.736 92.8033C215.137 92.8033 213.656 93.2751 212.293 94.2186V118.082C213.892 118.737 215.832 119.064 218.112 119.064Z" fill="white"/>
<path d="M262.208 121.541H238.62V120.323L242.316 117.413V93.5896L238.227 92.2136L239.013 90.6411H261.815L263.938 89.9335V98.9755L262.759 99.3686L258.08 92.4102H247.23V104.872H253.402L256.272 99.8404H257.491V111.792L255.918 112.578L253.441 106.642H247.23V119.772H257.923L263.152 112.027L264.331 112.421V122.249L262.208 121.541Z" fill="white"/>
<path d="M288.015 114.583C288.015 113.77 287.688 113.01 287.033 112.303C286.377 111.595 285.552 110.953 284.556 110.376C283.586 109.773 282.263 109.04 280.585 108.175C278.593 107.126 276.995 106.235 275.789 105.501C274.583 104.741 273.548 103.85 272.683 102.828C271.845 101.806 271.425 100.679 271.425 99.4472C271.425 98.1368 271.976 96.7346 273.076 95.2407C274.177 93.7206 275.514 92.4495 277.086 91.4274C278.685 90.379 280.153 89.8548 281.489 89.8548C283.114 89.8548 285.001 90.0514 287.151 90.4445C289.3 90.8377 290.872 91.257 291.868 91.7026V99.3293H290.374C289.09 97.2064 287.675 95.5552 286.128 94.3758C284.608 93.1965 283.01 92.6068 281.332 92.6068C279.838 92.6068 278.646 93.0785 277.755 94.022C276.89 94.9393 276.457 96.1449 276.457 97.6388C276.457 98.5037 276.785 99.3162 277.44 100.076C278.122 100.81 278.947 101.465 279.917 102.042C280.913 102.618 282.289 103.365 284.045 104.283C285.984 105.252 287.557 106.117 288.762 106.877C289.968 107.611 290.977 108.476 291.789 109.472C292.628 110.442 293.048 111.543 293.048 112.774C293.048 114.085 292.458 115.5 291.278 117.02C290.099 118.514 288.658 119.785 286.954 120.834C285.277 121.856 283.743 122.367 282.354 122.367C280.651 122.367 278.62 122.17 276.261 121.777C273.928 121.384 272.251 120.965 271.229 120.519V112.892H272.723C274.059 115.015 275.579 116.666 277.283 117.846C278.987 119.025 280.743 119.615 282.551 119.615C283.625 119.615 284.582 119.379 285.421 118.907C286.259 118.435 286.902 117.82 287.347 117.06C287.793 116.273 288.015 115.448 288.015 114.583Z" fill="white"/>
<path d="M310.117 121.541H298.166V120.323L301.861 117.413V93.5896L297.773 92.2136L298.559 90.6411H310.51V91.8598L306.775 94.769V118.553L310.903 119.969L310.117 121.541Z" fill="white"/>
<path d="M343.124 115.33L344.186 117.02L336.952 121.463C335.851 121.803 334.777 122.026 333.728 122.131C332.706 122.262 331.605 122.327 330.426 122.327C327.517 122.327 324.935 121.659 322.681 120.323C320.454 118.986 318.711 117.151 317.453 114.819C316.221 112.46 315.605 109.787 315.605 106.799C315.605 103.732 316.535 100.902 318.396 98.3072C320.257 95.6863 322.576 93.6289 325.355 92.135C328.133 90.6149 330.78 89.8548 333.296 89.8548C334.79 89.8548 336.533 90.0514 338.525 90.4445C340.516 90.8377 341.971 91.257 342.888 91.7026V99.3293H341.394C338.773 95.2145 335.314 93.1571 331.016 93.1571C329.129 93.1571 327.412 93.6682 325.866 94.6904C324.319 95.6863 323.101 97.0884 322.21 98.8969C321.345 100.679 320.912 102.684 320.912 104.912C320.912 107.48 321.332 109.826 322.17 111.949C323.035 114.072 324.346 115.775 326.102 117.06C327.858 118.344 330.033 118.986 332.628 118.986C333.781 118.986 334.737 118.947 335.497 118.868C336.257 118.789 337.162 118.54 338.21 118.121V108.843L332.156 107.153L332.942 105.58H346.859V106.799L343.124 109.747V115.33Z" fill="white"/>
<path d="M377.686 94.8083V121.581H375.524L356.851 97.9533V117.924L360.978 120.008L360.192 121.581H350.993V120.362L354.688 117.453V94.4152L350.6 92.2136L351.386 90.6411H357.322L375.524 113.679V94.2579L371.436 92.2136L372.222 90.6411H381.421V91.8991L377.686 94.8083Z" fill="white"/>
<path d="M408.941 121.541H385.353V120.323L389.049 117.413V93.5896L384.96 92.2136L385.747 90.6411H408.548L410.671 89.9335V98.9755L409.492 99.3686L404.813 92.4102H393.963V104.872H400.135L403.005 99.8404H404.224V111.792L402.651 112.578L400.174 106.642H393.963V119.772H404.656L409.885 112.027L411.064 112.421V122.249L408.941 121.541Z" fill="white"/>
<path d="M446.071 121.62H438.758L430.11 107.664L428.262 106.327L428.852 105.148H431.053C432.835 105.148 434.238 104.702 435.26 103.811C436.308 102.894 436.832 101.649 436.832 100.076C436.832 98.0058 436.256 96.2891 435.102 94.9262C433.949 93.5372 432.272 92.8426 430.07 92.8426C428.603 92.8426 427.253 93.2751 426.021 94.14V118.632L430.149 120.047L429.363 121.62H417.411V120.401L421.107 117.492V93.5896L417.018 92.2529L417.805 90.6804H422.365C424.75 90.6804 427.096 90.6018 429.402 90.4445C431.079 90.3397 432.324 90.2873 433.137 90.2873C434.893 90.2873 436.452 90.6411 437.815 91.3487C439.204 92.0564 440.265 93.013 440.999 94.2186C441.759 95.4242 442.139 96.7477 442.139 98.1892C442.139 99.4997 441.733 100.758 440.921 101.963C440.108 103.143 439.034 104.178 437.697 105.069C436.387 105.934 434.998 106.589 433.53 107.035L436.085 107.9L442.179 117.728L446.857 120.047L446.071 121.62Z" fill="white"/>
<path d="M218.019 13.5638L223.801 0.575439L187.358 136.582L182.455 146.288L218.019 13.5638Z" fill="white"/>
</svg>
