<svg width="493" height="493" viewBox="0 0 493 493" fill="none" xmlns="http://www.w3.org/2000/svg">
<circle cx="246.122" cy="246.121" r="185.702" fill="url(#paint0_linear_283_19)"/>
<path d="M401.716 436.82C364.994 466.782 320.402 485.505 273.297 490.738C226.192 495.971 178.577 487.492 136.175 466.32C93.7717 445.148 58.3836 412.183 34.2618 371.386C10.14 330.589 -1.68948 283.695 0.194536 236.338C2.07855 188.98 17.5959 143.174 44.8824 104.422C72.1689 65.6704 110.064 35.6211 154.015 17.8844C197.966 0.147767 246.103 -4.52178 292.643 4.43676C339.183 13.3953 382.147 35.6009 416.373 68.3858L390.431 95.4681C361.421 67.6788 325.003 48.8568 285.554 41.2633C246.106 33.6698 205.303 37.6279 168.049 52.6619C130.796 67.6959 98.6749 93.1665 75.5461 126.014C52.4174 158.861 39.2645 197.687 37.6675 237.828C36.0706 277.97 46.0975 317.718 66.5438 352.299C86.9901 386.879 116.986 414.821 152.928 432.767C188.869 450.713 229.228 457.9 269.156 453.464C309.083 449.029 346.881 433.159 378.007 407.762L401.716 436.82Z" fill="url(#paint1_linear_283_19)"/>
<defs>
<linearGradient id="paint0_linear_283_19" x1="246.122" y1="60.4197" x2="246.122" y2="431.823" gradientUnits="userSpaceOnUse">
<stop stop-color="#3989C2"/>
<stop offset="1" stop-color="#0D3A53"/>
</linearGradient>
<linearGradient id="paint1_linear_283_19" x1="246.121" y1="0" x2="246.121" y2="492.243" gradientUnits="userSpaceOnUse">
<stop stop-color="#3989C2"/>
<stop offset="1" stop-color="#0D3A53"/>
</linearGradient>
</defs>
</svg>
