<svg width="118" height="116" viewBox="0 0 118 116" fill="none" xmlns="http://www.w3.org/2000/svg">
<path d="M0.836182 89.6869C3.37653 104.409 16.2087 115.608 31.6566 115.608H85.822C103.096 115.608 117.099 101.605 117.099 84.3312V30.1658C117.099 27.915 116.862 25.7198 116.41 23.6039L59.0909 56.8968L0.836182 89.6869Z" fill="#280068"/>
<path d="M116.652 24.7153C113.637 10.5918 101.088 0 86.0645 0H31.8991C14.6251 0 0.621826 14.0033 0.621826 31.2772V85.4426C0.621826 87.2686 0.778302 89.058 1.07857 90.7983L59.3332 58.0083L116.652 24.7153Z" fill="#A179DC"/>
<path d="M117.099 30.0043C117.099 32.4251 117.099 80.5692 117.099 84.2182C117.099 87.8672 116.453 90.6958 116.453 90.6958L58.3879 58.3948L116.612 24.5416C116.612 24.5416 117.099 27.5835 117.099 30.0043Z" fill="#390091"/>
<path d="M91.6508 76.7855C87.5828 84.1152 81.2035 89.8926 73.5077 93.2166C65.812 96.5406 57.2325 97.2243 49.1075 95.1612C40.9824 93.0981 33.7685 88.404 28.5909 81.8112C23.4133 75.2183 20.563 67.0973 20.4847 58.7148C20.4064 50.3322 23.1044 42.1594 28.1579 35.4709C33.2114 28.7825 40.3363 23.9544 48.4214 21.7398C56.5065 19.5252 65.0972 20.0485 72.8537 23.2281C80.6102 26.4077 87.0964 32.0649 91.3007 39.3173L74.7391 48.9183C72.6545 45.3224 69.4385 42.5174 65.5927 40.9409C61.7469 39.3644 57.4875 39.1049 53.4787 40.203C49.47 41.301 45.9373 43.6949 43.4317 47.0111C40.926 50.3274 39.5883 54.3797 39.6272 58.5359C39.666 62.6921 41.0792 66.7187 43.6464 69.9875C46.2135 73.2564 49.7903 75.5838 53.8189 76.6067C57.8474 77.6297 62.1013 77.2907 65.917 75.6426C69.7327 73.9944 72.8957 71.1299 74.9127 67.4957L91.6508 76.7855Z" fill="white"/>
<path fill-rule="evenodd" clip-rule="evenodd" d="M79.8972 55.1957H85.1707V60.8208H79.8972V63.6333H85.1707V68.5552H87.6317V63.6333H93.2567V68.5552H95.7177V63.6333H101.343V60.8208H96.0692V55.1957H101.343V52.7348H96.0692V47.4613H93.2567V52.7348H87.6317V47.4613H85.1707V52.7348H79.8972V55.1957ZM87.2799 54.8442H93.6081V61.1724H87.2799V54.8442Z" fill="white"/>
</svg>
