<svg width="112" height="112" viewBox="0 0 112 112" fill="none" xmlns="http://www.w3.org/2000/svg">
<rect width="112" height="112" rx="30" fill="#1572B6"/>
<path fill-rule="evenodd" clip-rule="evenodd" d="M56.0183 8.09638L56.0183 103.904L38.7708 103.904C22.2023 103.904 8.77082 90.4721 8.77082 73.9036L8.77082 38.0964C8.77082 21.5279 22.2023 8.09638 38.7708 8.09638L56.0183 8.09638Z" fill="#1572B6"/>
<path fill-rule="evenodd" clip-rule="evenodd" d="M56.0183 103.903V8.09631H73.2656C89.8341 8.09631 103.266 21.5278 103.266 38.0963V73.9035C103.266 90.472 89.8342 103.903 73.2656 103.903H56.0183Z" fill="#33A9DC"/>
<path d="M80.964 40.4819H30.3616L31.3736 50.6024H69.4941L68.8194 60.7229H43.8555L44.5302 71.1807H67.8074L66.7953 84L55.6628 87.0361L44.5302 84L43.8555 75.9036H33.3977L34.7471 91.4217L55.6628 97.8313L76.5784 91.4217L80.964 40.4819Z" fill="white"/>
<path d="M43.5903 24.6698H35.3901V17.3807H43.5903V12.3695H29.0122V30.1366H43.5903V24.6698Z" fill="white"/>
<path d="M63.1797 30.1366H46.3237V25.1254H54.0683L46.3237 16.9252V12.3695H63.1797V17.3807H55.435L63.1797 25.5809V30.1366Z" fill="white"/>
<path d="M82.3132 30.1366H65.4573V25.1254H73.2019L65.4573 16.9252V12.3695H82.3132V17.3807H74.5686L82.3132 25.5809V30.1366Z" fill="white"/>
</svg>
