<svg width="166" height="166" viewBox="0 0 166 166" fill="none" xmlns="http://www.w3.org/2000/svg">
<rect width="166" height="166" rx="30" fill="white"/>
<mask id="mask0_339_54" style="mask-type:luminance" maskUnits="userSpaceOnUse" x="6" y="7" width="153" height="153">
<path d="M6 7H159V160H6V7Z" fill="white"/>
</mask>
<g mask="url(#mask0_339_54)">
<path d="M156.118 76.6871L89.3143 9.88877C88.3992 8.97307 87.3126 8.24667 86.1167 7.75106C84.9207 7.25546 83.6388 7.00037 82.3443 7.00037C81.0497 7.00037 79.7678 7.25546 78.5718 7.75106C77.3759 8.24667 76.2893 8.97307 75.3742 9.88877L61.5073 23.7623L79.1007 41.3556C81.1691 40.6532 83.3928 40.5435 85.5203 41.039C87.6477 41.5345 89.5941 42.6155 91.1393 44.1596C92.693 45.7149 93.7776 47.6761 94.269 49.8189C94.7605 51.9617 94.6389 54.1995 93.9183 56.2765L110.881 73.2337C112.958 72.5122 115.197 72.3906 117.34 72.883C119.484 73.3754 121.445 74.4619 122.999 76.0178C124.088 77.1063 124.951 78.3986 125.541 79.821C126.13 81.2433 126.433 82.7678 126.433 84.3074C126.433 85.847 126.13 87.3715 125.541 88.7938C124.951 90.2162 124.088 91.5085 122.999 92.597C120.798 94.7959 117.814 96.0309 114.703 96.0309C111.592 96.0309 108.608 94.7959 106.406 92.597C104.771 90.9592 103.657 88.8743 103.205 86.6047C102.752 84.3351 102.981 81.9823 103.862 79.8425L88.0439 64.0291V105.651C89.7135 106.476 91.1626 107.687 92.2711 109.183C93.3797 110.679 94.1158 112.418 94.4185 114.256C94.7212 116.093 94.5818 117.976 94.0118 119.749C93.4419 121.522 92.4577 123.133 91.1409 124.45C90.0524 125.539 88.76 126.403 87.3377 126.992C85.9153 127.581 84.3908 127.884 82.8513 127.884C81.3117 127.884 79.7872 127.581 78.3649 126.992C76.9425 126.403 75.6502 125.539 74.5616 124.45C73.4726 123.362 72.6088 122.069 72.0194 120.647C71.43 119.224 71.1267 117.699 71.1267 116.16C71.1267 114.62 71.43 113.095 72.0194 111.673C72.6088 110.25 73.4726 108.958 74.5616 107.869C75.6586 106.77 76.9625 105.899 78.398 105.307V63.3015C76.9684 62.7126 75.6692 61.8471 74.5751 60.7547C73.4809 59.6622 72.6134 58.3643 72.0224 56.9356C71.4313 55.5069 71.1284 53.9755 71.131 52.4293C71.1335 50.8832 71.4416 49.3528 72.0374 47.9261L54.6905 30.5758L8.88055 76.3741C7.03456 78.2237 5.9978 80.7301 5.9978 83.3433C5.9978 85.9565 7.03456 88.4629 8.88055 90.3125L75.6872 157.119C77.5368 158.965 80.0429 160.001 82.6556 160.001C85.2684 160.001 87.7745 158.965 89.624 157.119L156.118 90.6256C157.964 88.776 159 86.2695 159 83.6564C159 81.0432 157.964 78.5367 156.118 76.6871Z" fill="#F03C2E"/>
</g>
</svg>
