<svg width="112" height="112" viewBox="0 0 112 112" fill="none" xmlns="http://www.w3.org/2000/svg">
<rect width="112" height="112" rx="30" fill="#E44D26"/>
<path fill-rule="evenodd" clip-rule="evenodd" d="M56.0186 8.09638L56.0186 103.904L38.7711 103.904C22.2025 103.904 8.77106 90.4721 8.77106 73.9036L8.77107 38.0964C8.77107 21.5279 22.2025 8.09638 38.7711 8.09638L56.0186 8.09638Z" fill="#E44D26"/>
<path fill-rule="evenodd" clip-rule="evenodd" d="M56.0186 103.904V8.09644H73.2658C89.8344 8.09644 103.266 21.5279 103.266 38.0964V73.9036C103.266 90.4721 89.8344 103.904 73.2659 103.904H56.0186Z" fill="#F16529"/>
<path d="M32 40H80L78.8387 50.3709H42.4516L43.2258 60.7417H78.0645L75.3548 92.2384L55.6129 98L36.6452 92.2384L35.4839 76.4901H45.1613V84.1722L55.6129 87.6291L66.8387 84.1722L67.6129 71.1126H34.7097L32 40Z" fill="white"/>
<path d="M15 13V31H21.5V25H27V31H33.5V13H27V19H21V13H15Z" fill="white"/>
<path d="M42 19H36.5V13H54V19H48.5V30.5H42V19Z" fill="white"/>
<path d="M63 30.5H57V13H63L67.5 19L72 13H78.5V30.5H72V22.5L67.5 28L63 22.5V30.5Z" fill="white"/>
<path d="M97.5 30.5H81.5V13H88V24.5H97.5V30.5Z" fill="white"/>
</svg>
