<svg width="68" height="68" viewBox="0 0 68 68" fill="none" xmlns="http://www.w3.org/2000/svg">
<circle cx="33.55" cy="34" r="19.55" fill="#FFC42B"/>
<path d="M34.225 68L27.9679 57.1625L40.482 57.1625L34.225 68Z" fill="#FFC42B"/>
<path d="M9.47445e-07 33.225L10.8375 26.968L10.8375 39.482L9.47445e-07 33.225Z" fill="#FFC42B"/>
<path d="M10.2588 9.65785L22.3464 12.8967L13.4976 21.7455L10.2588 9.65785Z" fill="#FFC42B"/>
<path d="M33.5751 0L39.8321 10.8375L27.3181 10.8375L33.5751 0Z" fill="#FFC42B"/>
<path d="M67.45 34.425L56.6125 40.682L56.6125 28.168L67.45 34.425Z" fill="#FFC42B"/>
<path d="M57.7413 58.3422L45.6536 55.1033L54.5024 46.2545L57.7413 58.3422Z" fill="#FFC42B"/>
<path d="M58.3422 10.2589L55.1034 22.3465L46.2546 13.4977L58.3422 10.2589Z" fill="#FFC42B"/>
<path d="M9.65776 57.7411L12.8966 45.6535L21.7454 54.5023L9.65776 57.7411Z" fill="#FFC42B"/>
</svg>
