<svg width="166" height="166" viewBox="0 0 166 166" fill="none" xmlns="http://www.w3.org/2000/svg">
<rect width="166" height="166" rx="30" fill="#161D2D"/>
<path d="M47 68.3333C51.8 48.7778 63.8 39 83 39C111.8 39 115.4 61 129.8 64.6667C139.4 67.1111 147.8 63.4444 155 53.6667C150.2 73.2222 138.2 83 119 83C90.2 83 86.6 61 72.2 57.3333C62.6 54.8889 54.2 58.5556 47 68.3333ZM11 112.333C15.8 92.7778 27.8 83 47 83C75.8 83 79.4 105 93.8 108.667C103.4 111.111 111.8 107.444 119 97.6667C114.2 117.222 102.2 127 83 127C54.2 127 50.6 105 36.2 101.333C26.6 98.8889 18.2 102.556 11 112.333Z" fill="#44A8B3"/>
</svg>
